<svg xmlns="http://www.w3.org/2000/svg" viewBox="0 0 800 340" enable-background="new 0 0 800 340"><g fill="#fff"><path d="M200.8 173.6c15-3.8 28.9-14 39.1-31.5 11.8-2.5 20.5-12.7 26.3-22.4 0 1.4.1 2.7.2 3.9 1.9 16.9 12.4 30.9 24.8 29 12.8-1.8 27-23.7 35.8-41.4-1 6.8-.9 13.5.1 19v.2c2 8.7 7.1 14.2 16 13.4 18.5-2.5 33.6-25.5 41.7-44.4-.3 12.1.2 22.6 1.2 29.5.6 3.5 1 6.9 2 9.8 1.1 4.1 5.9 7.3 10.9 5.4-2.5-7.8-2.8-21.5-2.9-29.9l1.4-2.5c4.1-11.3 17.5-38.8 23-39.6 14.1-2-2.9 30.1-18.1 37.6-1.2.7-1.6 2.5-.6 3.7 10.9 11 9.8 38.2 27.1 35.7 4.4-.6 7.8-4.2 11.1-10 6.1-10.5 14.3-31.9 19.9-47 3.4 9.4 11.2 12.4 15.3 11.8 8.2-1.2 16.2-18.1 20.8-27.2-3.8 21.7-5.9 40.9-5.7 61.4-10.9 9.8-19.1 17.7-18 25.1.8 5.7 4.8 10.2 11.5 9.3 20.2-2.9 18.6-32.9 18.6-40.8 4.3-3.7 8.7-7.8 12.6-12.3 15.7-15.3 24.1-48.3 33.8-64.1.2-.5.2-1.7-.2-2.3-.3-.2-1-.2-2-.2-8.4 13.7-16.3 41.5-29.7 60.2-4.1 4.8-9 9.8-14.2 14.4.5-18.1 2.6-38.1 8.9-66.7l-2.7-1c-4.1-1.1-8.1 2-10.5 5.5-.2 0-.2.3-.2.6-4.4 8.2-18.1 33.9-24.2 34.8-1.4.2-2.9-.7-3.8-3.4-2.6-8.1.7-26.2 2.3-34.7l-9.2-7.4c-.7-.5-1.2-.7-1.8-.6-2.5.3-4.2 21.7-2.7 31.4l.1.7c-5.5 14.8-15.2 39.7-21.2 50.8-2 3.7-3.9 5.4-6.2 5.7-8 1.1-8-25.9-20-33.4-.9-.7-.9-2.1.2-2.3 11.3-4.2 22.7-21.3 21.4-31-1-7.4-5.2-10.1-10.9-9.3-9.5 1.4-18.8 21.6-25.8 37.8.1-8.4.8-15.7 1.8-24.2 9.3-19.1 27.4-48.4 23.9-72.2-.8-5.5-5.2-8.3-9.6-7.7-17 2.5-25.2 50.9-27 89.4-7 18.1-22.9 47.4-40.5 49.9-12.9 1.9-4.7-57.6 8-61.1 1.9-.3 3.3 1.2 3.5 2.6 1.1 5.2-2.1 8-2.1 8.2-.7 1 .1 2.6 1.5 2.4.9-.1 1.1-1.9 2-3.7.9-2.1 1.6-5.1.9-7.8-1-4.4-5.7-6.5-10.7-5.5-6.3 1.2-11.8 8.2-15.6 17.4-.1-.1-.2-.1-.2-.1-7.7 20.6-27.6 53.9-38.6 55.5-7.5 1.1-10.8-15.7-11.4-21.7-1.5-11.9 0-20.6.7-22.1 12.3-6 20.6-14.5 19.5-22.5-.6-5.3-3.9-5.9-8.4-5.5-16.3 1.9-24.6 20.7-26.7 35.7-5.9 11.4-14.3 24-24.8 26.1 10.1-23.2 6.2-46.5-17-54.9 11.3-12 17.5-23.6 19.9-33.6 4.6-18.1-2.9-38.7-21.6-36-8.9 1.2-19 14.9-27.7 32.4-6.4 12.5-12.2 26.8-16.7 40.4 3.2-23 5.3-58.5 5.4-65.3.2-4.3-2.4-5-6.9-6.9-2.4-1-3.6-1.7-4.1-.8-11.4 25.9-72.6 17.1-67.4 52.9.9 6.1 3.3 10.6 7.3 13.6 5.1 3.5 11.6 3.9 12.9 3.7 1.9-.2 3.4-1.8 3-4.1-.1-.9-2.7-1-3.8-.9-5.1-.1-13.7.3-15.7-12.9-3.4-23.1 28.3-24.1 50.6-35.5 4.7-2.4 9.1-5.3 12.5-8.9-.5 23.5-6.6 126.3-30.1 129.7-3.6.6-7.8-2.8-9.3-6 19.9-13.3 17.7-46.3 3.4-44.1-12.6 1.8-14.4 29.9-8.2 43.7-5.7 2.8-16.1 3.4-17.7-7.7-.2-1.1-.6-5.1-.6-5.3 0-.2-.1-.4-.2-.5-1.9-19.6-5.2-39.7-19-46.4 3.6-17.9-6.4-37.5-25.6-45.3C44.5 31.2 16 37 5 64.4c-6.8 16.9-5.6 38.4 4.7 53 2 3.4 11 9.6 12.5 6 .5-1.2-.7-3.9-4.1-5.3-4.6-1.9-7.1-4.6-8.7-7.2-7.3-13.6-7.2-31.1-1.5-45.4 10-24.7 36-31.2 56.5-22.9 17.7 7.1 26.7 24.9 23.8 41.1-12.5-4.5-27.2 1.4-31.1 10.7-2.4 5.7-.2 10.9 4.8 12.9 8.7 3.5 23.2-1.8 28.4-19.4 13.1 6.8 15.3 28.5 17.2 48.6h.1c1.1 12.2 10.8 15.6 21.7 10.5 3.8 7.1 9.6 9.9 17.3 8.8 4.7-.7 8.6-3.2 11.7-6.8 8.3-9.1 13.7-26 17.5-44.8 10.7-36.5 33.8-83.2 46.2-85 15-2.1 18.4 34.8-2.7 60.4-1.1 1.8-9 8.3-10.8 9.1.9 1 2.1 3.6 3.2 4.6 2.8-2 19.1-3.6 21.5 12.4 1.6 10.5-1.1 23-4.8 32.5-3.9-.6-7.7-.6-7.7-.6-19.1-1.5-45.8.7-44.8 19.1 1 13.1 11.8 20 24.9 16.9zm281.2-4.8c-4.2.6-6.4-1.6-7-5.7-1-6.6 7.5-14.1 15.1-20.5.2 16.3.5 24.9-8.1 26.2zM415.4 6.3c1.1-.2 2.9.9 3.3 3.2 2.9 20.4-12.8 45.7-20.8 64.1C404.8 28 409.6 7 415.4 6.3zM295.1 78.8c1.6-.2 3.5.9 3.7 2.6.9 8.7-6.8 13.4-15.7 18.4 1.3-9.3 3.1-20 12-21zM63.3 104.5c-3.8-1.6-4.7-5-3.2-8.9 3.2-7.7 16.1-12.7 27.6-9-4.5 15.9-17.2 20.8-24.4 17.9zm68.2 38.4c-8.4-14-.6-37 3.3-37.6 5.2-.8 6.2 5.9 6.6 11.1.6 9.7-2.3 20.6-9.9 26.5zm48.6 8.8c5.9-12.2 33.6-11.7 47-10.2-18.8 41.8-53.8 29.4-47 10.2zM340.4 333c-.6-.5-.8-.7-1.4-.6-1.6.2-1.5 2.6-3 2.8-13.4 1.9-34.9-54.7-38.1-67.7-2.1-9.5-6.9-14.9-12-18 14.5-11 30.4-28.1 27.8-46.2-1.7-11.4-8.9-17.7-19.3-16.2-12.8 1.9-28.6 35-37.2 61.3 1.6-16.3 4.1-51.7 3.8-53.5-.5-3.4-2.4-4.1-7.2-6.3-2.8-.9-3.9-1.8-4.6-.7-11.9 27-76.2 17.7-70.7 55.3.9 6.2 3.7 11 8.1 14.1 5.1 3.7 11.9 4.3 13.5 4.1 1.8-.2 3.4-2.4 3-4.4-1.5-3.3-17.7 4.6-20.5-14.4-4.3-29.4 45.3-24.8 66.1-46.5-.6 21.7-6.5 132.4-31.5 136-3.6.6-8.1-3-9.9-6.4 21.2-13.8 18.8-48.2 3.8-46.1-13.4 2-15.2 31.5-8.9 45.8-6 2.7-17.1 3.5-18.8-8.1-.1-1 .3-1.9.5-2.7.6-1.2-.3-2.4-1.9-2.1-.8.1-1.5.8-1.6 1.8.2 14.7 10.9 19.3 23 13.5 3.9 6.9 9.5 10.5 18.2 9.2 20.2-2.9 29.5-40.1 34.1-76.8 9.2-30.3 27.9-66.4 37.7-67.9 8.2-1.2 10 9.3 10.1 17.5.1 15-12.4 26.8-18.7 34-.5.8-2.4 1.9-3.9 3.7-3.4-1.6-7.1-1.6-8.9-1.4-3.9.6-6.3 3.8-5.9 7.2.3 2.3 2.4 5 5.2 4.5 4.2-.7 7.4-3.5 8.7-3.9 2.4 3.6 5.1 9 7.1 17.7 6 23.1 23.2 69.6 47 66.1 2.1-.2 6.9-2 6.5-3.9.1-.3-.2-.5-.2-.8zm-134.6-9.6c-8.7-14.9-.7-39 3.5-39.5 4.2-.7 5.7 3.4 6.4 8 1.7 11.9-1.4 24.7-9.9 31.5zm66.4-70.3c-4.1.7-2.3-8.6 5-2.3-3 2.1-3 2.1-5 2.3zM337.2 237.3c-3.2-.1-5.2 2.4-4.7 5.4.5 2.8 2.8 5.2 6 5.2 3.2-.1 5.5-2.4 5.1-5.2-.5-3.1-3.2-5.3-6.4-5.4zM799.7 193.2c-4.2-29.2-30.5-41.7-52.9-38.4-20.4 2.9-34.8 19.6-35.6 37.8-30.9 6.5-31.8 78-51.9 81-9.8 1.5-6.5-53.3-5.5-64.7 9-17.7 25.6-45 22.3-67.2-.8-5.2-4.5-7.8-8.7-7.2-19.9 2.8-24.9 68.3-25.7 87.9-4.5 15.4-13.6 32.8-18.2 33.4-6.2.9-1.5-44.6 10.5-49.2 2.3-.6 3.8 1.4 4.1 2.6.2 1.8 0 3.5-.7 4.6-.7 1.4-1.6 1.8-2.3 2.9-.9.9.1 2 1.1 1.9.8-.1 1.7-1.4 2.5-3.3 1-2 1.7-4.7 1.4-7.1-.3-2.6-2.6-5.2-6.1-5.7-13.7-2.3-22.9 18.5-23.7 35.5-8.2 19.1-23 51.2-29.1 52.1-6.6.9 1.4-52.1 2.5-59.1.9-4.8 3.3-10.5-.8-14.6-5.5-5-11.8-3.5-14.5-3.9 3.2-9.5-3.8-17.9-10.6-16.9-4.6.7-8.1 5.6-7.4 10.2.9 6.2 4.8 10.1 13.8 11.9-1 2.8-2.5 7-3.6 10l-2.5 6.4s-.1 0-.1-.1c-3.8 9.8-20.9 53-31.5 54.6-9 1.2 1.6-47.6 3.5-55.8-.6-.1-1.5-.6-2.3-.7-3.6-1.2-7.4 1.4-9.9 4.4-4.5 5.4-14.6 37.2-20.3 37.9-8.2 1.2-8-44.4 10.8-47.1 2.6-.5 4.1.9 4.3 2.5.6 3.8-1.7 6.5-2.5 8-.3.6 0 1.6.8 1.5 1-.1 4.4-5.6 3.7-10.2-.8-5.4-7.3-6.9-12.5-6.1-13.8 2-21.4 22.4-20.2 36.7-4.3 13.3-10.3 31.3-16.3 40.6-.5.2-2.4 3.5-4.2 3.7-6 .9-1.7-38.7-4.1-54.7-1-7.4-5.4-10.2-10.8-9.5-7.7 1.1-14 21.5-18.6 34.8.2-7.7.6-15.7 1.4-23.1 9-17.6 25.6-45.3 22.3-67.4-.8-4.8-4.5-7.4-8.7-6.9-16 2.3-23.8 47.8-25.5 83.9-6.8 17-21.2 42.8-37.2 45.2-12.2 1.7-4.5-53.9 7.4-57.2 1.8-.2 3 1.2 3.3 2.5 1 4.8-2 7.4-2 7.7-.7.9.1 2.4 1.4 2.1.8-.1 1.1-1.7 1.9-3.4.8-1.9 1.5-4.6.8-7.2-.8-4.2-5.3-6.1-9.9-5.2-5.8 1.1-11 7.7-14.6 16.3-.1 0-.1-.1-.2-.1-3.6 11.3-19.7 45.5-30.1 46.7-9 1.2.2-39.9 2.3-47.7-2.8-1.1-10.4-4.3-11.3-1.2-9.5 33.2-3.4 53.4 8.6 51.9 8.9-1.1 18.9-16.9 25.8-30.8-.7 5.8-.6 11.5.4 16.1v.2c2 8.2 6.6 13.3 14.9 12.6 16.8-2.3 30.6-22.7 38.2-39.9-.1 5.4-.1 10.4.1 14.9.3 2.3.7 4.6 1.2 6.6.8 3.5 5 6.9 9.8 5.6-.1-.8-.3-6.5-.6-15 3.5-10.2 13.4-37.7 17.8-38.6 4.6-.7-.3 28.8 2.7 49.7 1.1 7.7 4.2 15.7 12.2 14.5 3.2-.5 5.9-3 7.4-5.1 5.7-8.8 11-24 15.1-36.8 2.4 8.8 8.1 12.6 14.4 11.7 7.4-1.1 14-21.5 18.1-31.1-.6 3.3-1.1 6.2-1.6 8.9-.2 3.9-5.6 39 12.4 36.4 12.6-1.8 28.8-42.6 33.7-54.6 4.6-9.9 7.3-18.7 7.3-18.7 4.5.7 7.8 1.2 7 6.6-.1.8-18.5 72.2 7.3 68.5 7.5-1.1 20.7-29 28.8-48.2 1 8.6 4.7 14.8 12.1 13.8 7-1 12.9-12.9 18.9-25.9 0-.3.2-.3.2-.3-.1 15.2 1.7 45.8 16.9 43.6 24.4-3.5 24.4-74.1 52.7-80.8.9 18.4 13.7 27 23 25.7 5.4-.8 8.7-5.2 7.8-11.4-1.5-10-14.4-19.1-27.6-17.8 1-16.4 14.1-31.5 32.9-34.2 22-3.3 45.6 9.3 49.4 35.7 2.1 15.2-1.9 32.2-12.4 43.7-2.1 2.1-5.3 4.2-10.1 4.8-3.6.6-5.4 2.9-5.2 4.2.6 3.8 10.8 0 13.5-2.8 13.7-11.7 19.9-32.3 17.4-50.1zM670.5 139c1-.2 2.7.9 3 2.9 2.7 19.1-11.9 42.9-19.5 60 6.5-42.4 10.8-62 16.5-62.9zM446 181.9c1-.1 2.8.9 3 2.7 2.8 19.1-12.2 43.1-19.4 60.2 5.5-35.2 10-61.9 16.4-62.9zM565.3 212c-5.7.3-9.2-3-9.9-8-.6-3.4 1.5-5.7 3-6 4.4-.6 9.2 5.6 6.9 14zm173.3-1.8c.6 4.2-1 7.3-5.2 7.9-7.7 1.1-18.8-6.8-19.4-23.2 12-1 23.5 7.1 24.6 15.3zM576.1 100.7c2.6-.6 4.4-7.7 5.6-11l-.3 3c0 1.4-1.1 13.5 5 12.2 4-.8 8.4-13.5 10.2-18.5.2 2.6-.2 7.3-1.1 10.1.2.7 2.9 1.2 3.4.9.8-1.4 3.7-18.5 6.5-19 2.6-.6-.3 17.3 1 24.1.5 1.9 1.5 3.3 3.4 2.8 4.1-.9 5.9-8.8 8.8-19.1.5 3.1 1.9 5.2 4.4 4.8 2.4-.5 4.2-4.7 6-9.2 0-.1.1-.1.1-.1.2 5.2 1.5 15.7 6.6 14.6 7.8-1.6 7-23 14.9-27.9-.2-.6-.2-1-.3-1.4-8.7 5-8 26.7-14.4 28-3.4.7-3.3-18.1-3.2-22.1 2.7-6.2 7.9-15.9 6.3-23.4-.3-1.8-1.7-2.6-3.2-2.3-6.8 1.4-7.1 23.9-7 30.6-1.2 5.4-4.1 11.5-5.6 11.8-2.1.5-1.4-15.2 2.6-17 .8-.2 1.4.3 1.5.8.1.6.1 1.1-.1 1.6s-.5.7-.7 1c-.3.3 0 .7.5.7.2 0 .6-.5.8-1.1.3-.7.5-1.7.3-2.5-.2-.9-1-1.7-2.3-1.8-4.8-.5-7.5 6.9-7.4 12.8-1.6 5.7-4.3 15-6.5 18.6-.6.7-1.2 1.5-1.8.7-1.1-2 1.2-16.7-.1-23.1-.6-2.7-1.8-3.8-4.3-3.4-2.8.6-4.7 8.4-6.1 13.2.1-1.2.7-4.2-.1-5.5-.7-1.5-2.7-1.9-3.4-.2 0 .1.1.2.2.5-.2 0-.3-.1-.6-.2-1.1 3.4-6.1 18.6-9.7 19.4-3 .7-.5-16.3.1-19.1l-.8-.2c-1.2-.3-2.5.6-3.3 1.7-1.5 1.9-4.3 12.9-6.2 13.4-2.8.6-3.6-15 2.7-16.3.9-.2 1.5.2 1.6.8.2 1.4-.5 2.3-.7 2.8-.1.2 0 .6.3.5s1.5-2 1.1-3.6c-.3-1.8-2.6-2.1-4.4-1.8-1.5.3-2.7 1.2-3.7 2.6l-1.8 3.6c-.8 2.5-.9 5.2-.5 7.4.9 3.6 3.2 5.2 5.7 4.8zM637 48.8c.3-.1 1 .2 1.1 1 1.4 6.4-3.3 14.9-5.4 20.9 1.3-14.7 2.4-21.6 4.3-21.9z"/></g></svg>